# xmcd
#
# Track frame offsets:
#	150
#	19471
#	35790
#	58051
#	74892
#	91336
#	106780
#	124173
#	140880
#	152629
#	172674
#	191323
#
# Disc length: 2873 seconds
#
# Revision: 1
# Processed by: cddbd v1.5.1PL2 Copyright (c) Steve Scherf et al.
# Submitted via: audiograbber 1.83.01
#
DISCID=ab0b370c
DTITLE=Boss Diablo - Don't Act Right
DYEAR=2006
DGENRE=Rock and Roll
TTITLE0=Darker Side
TTITLE1=You Don't Act Right
TTITLE2=Light a Candle
TTITLE3=Way Down in the Hole
TTITLE4=Shake Some Dust
TTITLE5=End of Days
TTITLE6=Devil Train
TTITLE7=Ruby Ruby
TTITLE8=I Love You Honey
TTITLE9=King of the Urban Jungle
TTITLE10=Midnight Train
TTITLE11=Ballad of Boss Diablo
EXTD=
EXTT0=
EXTT1=
EXTT2=
EXTT3=
EXTT4=
EXTT5=
EXTT6=
EXTT7=
EXTT8=
EXTT9=
EXTT10=
EXTT11=
PLAYORDER=
